<svg id="Layer_1" enable-background="new 0 0 64 64" viewBox="0 0 64 64" xmlns="http://www.w3.org/2000/svg"><path d="m61.6 1.3c-1.7-1.7-4.4-1.7-6.1 0l-25.4 25.3-.6-.6c-1-1-2.6-1-3.5 0-.5.5-.7 1.1-.7 1.8 0 .2 0 .5.1.7-1.7-.3-5.1-.5-7.7 2.2-2 2-4.3 3.9-6.9 5.5-2.9 1.8-5.8 3.3-8.8 4.2-.1 0-.2.1-.3.3-.1.1-.1.3 0 .4.8 2.1 1.8 4.2 3.1 6.1v.1.1c2.3 3.5 5.3 6.8 9 9.8.2.2.5.1.7 0l3.5-3.5-1.1 4.9c0 .2.1.5.3.5l4.7 2.3h.2.2c.1-.1.2-.2.3-.3.9-2.9 2.4-5.9 4.2-8.8 1.7-2.6 3.5-4.9 5.5-6.9 2.7-2.6 2.5-6 2.2-7.7.2.1.4.1.7.1.6 0 1.3-.2 1.8-.7s.7-1.1.7-1.8-.3-1.3-.7-1.8l-.7-.7 25.3-25.4c1.7-1.7 1.7-4.4 0-6.1zm-30 43.3c-2.1 2-4 4.4-5.7 7-1.8 2.8-3.2 5.6-4.1 8.5l-3.8-1.8 1.4-6.2c0-.2-.1-.4-.2-.5-.2-.1-.4-.1-.6.1l-4.5 4.3c-3.3-2.7-6.1-5.6-8.2-8.8l4.3-2.2c.2-.1.3-.4.2-.7-.1-.2-.4-.3-.7-.2l-4.4 2.3c-1-1.7-1.9-3.4-2.6-5.2 2.9-1 5.7-2.4 8.5-4.1 2.7-1.7 5-3.6 7-5.7 3-3 7-1.9 7.7-1.7l1.4 1.4c-2.3 2.1-4.9 4.2-5.4 4.3-.3 0-.5.3-.5.5 0 .3.2.5.5.5 1-.1 4.3-3 6-4.6l3 3c-1.3 1.5-6.6 7.6-7.3 10.8-.1.3.1.5.4.6h.1c.2 0 .4-.2.5-.4.6-2.9 5.7-8.8 7-10.3l1.5 1.5c.4.6 1.5 4.6-1.5 7.6zm5-9.4c0 .4-.2.8-.4 1.1-.6.6-1.5.6-2.1 0l-7.4-7.4c-.3-.3-.4-.7-.4-1.1s.2-.8.4-1.1c.6-.6 1.5-.6 2.1 0l7.4 7.4c.3.4.4.7.4 1.1zm24.3-28.5-25.4 25.4-4.7-4.7 25.3-25.4c1.3-1.3 3.4-1.3 4.7 0 1.4 1.3 1.4 3.4.1 4.7z"/><path d="m17.6 22.4c-.1.2-.1.5.2.7.1.1.2.1.3.1.2 0 .3-.1.4-.2l2.4-3.8c.7.1 1.3.1 1.9.1 2.4 0 4.2-.7 5.5-2 2.3-2.3 2.8-6.6 1.7-13.5 0-.1-.1-.3-.2-.3-.1-.1-.3-.1-.4 0-7.1 2.7-11 5.7-11.7 9-.4 2 .4 4.1 2.3 6.3zm.9-9.8c.6-2.8 4.1-5.5 10.5-8 .9 6.1.4 10-1.6 12-1.3 1.4-3.3 1.9-6.1 1.6l4.4-7c.1-.2.1-.5-.2-.7-.2-.1-.5-.1-.7.2l-4.5 7.1c-1.5-1.8-2.1-3.5-1.8-5.2z"/><path d="m43.5 51.2c-2-.4-4.1.5-6.2 2.6l-3.9-2.2c-.2-.1-.5-.1-.7.2-.1.2-.1.5.2.7l3.9 2.2c-.3 3.3.4 5.8 2.1 7.3 1.5 1.3 3.6 2 6.6 2 1.9 0 4.2-.3 6.9-.8.1 0 .3-.1.3-.3.1-.1.1-.3 0-.4-2.8-7-5.9-10.7-9.2-11.3zm-3.8 10.1c-1.4-1.3-2-3.2-1.9-6l7.2 4.1c.1 0 .2.1.2.1.2 0 .3-.1.4-.2.1-.2.1-.5-.2-.7l-7.3-4.2c1.7-1.7 3.5-2.4 5.1-2.1 2.8.5 5.7 3.9 8.5 10.1-5.9 1.1-9.9.8-12-1.1z"/><path d="m2 30.6c.1 0 .2.1.2.1h.2c6.5-2.5 9.9-5.1 10.8-8.2.6-2.2-.1-4.7-2.1-7.3l2.1-4c.1-.2 0-.5-.2-.7-.2-.1-.5 0-.7.2l-2.1 3.9c-2.8-.7-5.1-.3-6.6 1.1-2.5 2.3-3.1 7-1.9 14.6.1.1.2.2.3.3zm2.3-14.2c.9-.8 2-1.2 3.4-1.2.6 0 1.3.1 2.1.3l-3.9 7.4c-.1.2 0 .5.2.7.1 0 .2.1.2.1.2 0 .3-.1.4-.3l3.9-7.3c1.6 2.3 2.2 4.3 1.7 6.1-.8 2.7-3.9 5.1-9.6 7.4-1.1-6.9-.5-11.3 1.6-13.2z"/></svg>